inDegrees=no
num_controls=7
num_derivatives=13
num_iterations=105
num_multipliers=7
num_parameters=0
num_slacks=7
num_states=26
objective=0.455233
objective_accelerations=0.069479
objective_balance=0.005121
objective_effort=0.058990
objective_height=0.316041
objective_ligament=0.005601
solver_duration=1235.222660
status=Solve_Succeeded
success=true
DataType=double
version=3
OpenSimVersion=4.5
endheader
time	/jointset/ground_pelvis/pelvis_tilt/value	/jointset/ground_pelvis/pelvis_tx/value	/jointset/ground_pelvis/pelvis_ty/value	/jointset/hip_r/hip_flexion_r/value	/jointset/hip_r/hip_adduction_r/value	/jointset/hip_r/hip_rotation_r/value	/jointset/back/lumbar_extension/value	/jointset/patellofemoral_r/patellar_flexion_r/value	/jointset/knee_r/knee_flexion_r/value	/jointset/knee_r/knee_adduction_r/value	/jointset/knee_r/knee_rotation_r/value	/jointset/ankle_r/ankle_angle_r/value	/jointset/subtalar_r/subtalar_angle_r/value	/jointset/ground_pelvis/pelvis_tilt/speed	/jointset/ground_pelvis/pelvis_tx/speed	/jointset/ground_pelvis/pelvis_ty/speed	/jointset/hip_r/hip_flexion_r/speed	/jointset/hip_r/hip_adduction_r/speed	/jointset/hip_r/hip_rotation_r/speed	/jointset/back/lumbar_extension/speed	/jointset/patellofemoral_r/patellar_flexion_r/speed	/jointset/knee_r/knee_flexion_r/speed	/jointset/knee_r/knee_adduction_r/speed	/jointset/knee_r/knee_rotation_r/speed	/jointset/ankle_r/ankle_angle_r/speed	/jointset/subtalar_r/subtalar_angle_r/speed	/forceset/tau_hip_flexion_r	/forceset/tau_hip_adduction_r	/forceset/tau_hip_rotation_r	/forceset/tau_knee_flexion_r	/forceset/tau_ankle_angle_r	/forceset/tau_subtalar_angle_r	/forceset/tau_lumbar_extension	lambda_cid13_p0	lambda_cid14_p0	lambda_cid14_p1	lambda_cid14_p2	lambda_cid14_p3	lambda_cid14_p4	lambda_cid14_p5	/jointset/ground_pelvis/pelvis_tilt/accel	/jointset/ground_pelvis/pelvis_tx/accel	/jointset/ground_pelvis/pelvis_ty/accel	/jointset/hip_r/hip_flexion_r/accel	/jointset/hip_r/hip_adduction_r/accel	/jointset/hip_r/hip_rotation_r/accel	/jointset/back/lumbar_extension/accel	/jointset/patellofemoral_r/patellar_flexion_r/accel	/jointset/knee_r/knee_flexion_r/accel	/jointset/knee_r/knee_adduction_r/accel	/jointset/knee_r/knee_rotation_r/accel	/jointset/ankle_r/ankle_angle_r/accel	/jointset/subtalar_r/subtalar_angle_r/accel	gamma_cid13_p0	gamma_cid14_p0	gamma_cid14_p1	gamma_cid14_p2	gamma_cid14_p3	gamma_cid14_p4	gamma_cid14_p5
0.5	-0.2214283394662786	-0.03261981037180408	0.6916240515330659	1.346593774711514	-0.2298937301448956	-0.06510355384053465	-0.3789788122950261	1.288867950278312	1.288867950278956	-0.06654894912731432	0.1745067970927739	0.3604774677391112	0.08634126694305896	-0.4284980420922126	-0.1600227981260292	-1.019553512035074	3.044743616748863	-0.04502141718992263	0.3159279023274059	-0.5180247203634707	3.123327739278219	3.123327739278305	-0.4687355875076966	0.0003781862041465929	0.6235487753570289	0.1395080979573205	-0.186237490814039	-0.01800179277902136	0.01189855220137044	-0.4561797903831361	0.1366727867821735	-0.000822618739770904	0.2230187905075809	-0.07720218963401067	2.398640451772685	-0.1136572737169876	0.6795549443036538	-11.96315865479686	-669.2381118396434	63.37095441319966	1.785754886979774	1.305251960110198	-0.5295738451551364	-2.49568462234037	-0.1993191123895468	-0.3076667537757312	2.608536284522022	-2.862296243602958	-2.862296243602909	1.042568374649908	-0.0987236024690975	-2.479022925114352	-1.02091614939334	3.898651430994354e-07	1.174461687885987e-06	6.909948087605847e-06	6.942709322404557e-06	-1.441275207585971e-06	-4.172182041563636e-07	8.608102992608628e-06
0.51	-0.225622601911616	-0.03415470546438828	0.6814047797703158	1.376912395845017	-0.2303539583321523	-0.06196709571037336	-0.3840287569122328	1.319953785757465	1.319953785757721	-0.07119056103979016	0.1745095721526289	0.3665874747666703	0.0876843948651953	-0.410226581293212	-0.1469486282568965	-1.024023404415269	3.018581039226208	-0.04699461548090281	0.3113351546641467	-0.4919629852405075	3.093450593977223	3.093450593977267	-0.4596215892119696	0.0002034443989761874	0.5983326816957005	0.1290765942122744	-0.1946072322146222	-0.01704533464150595	0.01157300742316506	-0.4673036727745039	0.1360743508495793	-0.001103376818742578	0.2310260331061284	-0.04568044604029178	1.504182905119215	-0.547475148129468	0.9260698044082383	-11.36081819816334	-680.481328295994	63.68974998179205	1.867172654841141	1.309360926935249	-0.3641517815564707	-2.736321287213304	-0.1907818996657951	-0.5391085184471071	2.605174801831166	-3.108823647586682	-3.108823647593165	0.8410146293111341	0.02885345209999059	-2.561002884955417	-1.058631459911538	4.444991906873883e-07	1.188592130397094e-06	6.042830019140047e-06	6.773533723418261e-06	-1.385244891786692e-06	-3.543740393634685e-07	8.401785507395704e-06
0.52	-0.2296302835532668	-0.03555868657295706	0.6711491181143426	1.406957435809298	-0.2308328108447611	-0.05887737100601438	-0.3888180476430799	1.350729169788759	1.350729169788628	-0.07574199315485275	0.1745117403787611	0.3724417007979534	0.08892233495531091	-0.3911818813549734	-0.1338400013229455	-1.026831490679659	2.990027382904142	-0.04874628226042514	0.3065812171670433	-0.4658939430916357	3.061237449706675	3.061237449706674	-0.4506996280251617	0.0002568194594461138	0.5723925761018387	0.1184705315531763	-0.2029769736151948	-0.0160888765039892	0.01124746264496425	-0.4784275551658711	0.1354759149169843	-0.001384134897712497	0.2390332757046862	-0.04561962990402615	0.6048446600148949	-0.9823727189068741	1.173024127413641	-10.7738751333637	-691.8061866962731	64.00156405970905	1.940402714827383	1.312143373073838	-0.1972126219942861	-2.973900382222657	-0.1550128100979635	-0.3399047205445914	2.609997689703774	-3.329496037513569	-3.329496037513691	1.00416095286604	-0.05310022934106451	-2.623825311621059	-1.055827932203739	4.779558575125414e-07	1.208981502721013e-06	5.763902443098949e-06	6.672899699744787e-06	-1.381765202669506e-06	-3.605640355796026e-07	8.638865140875571e-06
0.53	-0.2334440828006691	-0.03683152130620448	0.6608736078326219	1.436705546348903	-0.23132800132447	-0.05583469886470463	-0.3933465949020619	1.381171267483006	1.381171267482933	-0.08020426371410604	0.1745145064756009	0.3780332746423324	0.09005357261101472	-0.3714752992323748	-0.1207301972466474	-1.027995249503738	2.959216188437376	-0.05025545728821387	0.3020192246596339	-0.439834656459261	3.026827159301516	3.02682715930148	-0.4417029145290378	0.0002767617147434315	0.5458384428397797	0.1077613106987704	-0.2107924709473168	-0.01538698216079065	0.01070671798919321	-0.4894630629405858	0.1350695054794739	-0.00162903622069117	0.24651220925289	-0.04547018060384807	-0.2092795395018072	-1.381625533545243	1.408401324537952	-10.20194352224641	-702.7383528502529	64.35342477126486	2.001342149738681	1.30963514936274	-0.03473285156713997	-3.191346649549188	-0.1424090127284783	-0.5041406141328251	2.601021986871197	-3.550134124038075	-3.550134124043416	0.8554121741298089	0.02828696144898184	-2.683846054629226	-1.0791669287442	5.034196257104657e-07	1.223972553036187e-06	5.54899357816908e-06	6.572423144673147e-06	-1.381090634904431e-06	-3.718954975300291e-07	8.876202431416569e-06
0.54	-0.2370577049890926	-0.03797341075379792	0.6505947048948698	1.466134221409714	-0.2318369913871781	-0.05283560546812888	-0.3976151237273463	1.411258594556798	1.411258594556781	-0.08457497001316835	0.1745172210966929	0.3833567794098647	0.09107757850483744	-0.3511464695592727	-0.1076509441921498	-1.027510021885914	2.926140287144785	-0.05150619886036824	0.2978654682204754	-0.4138902563522114	2.990283325615514	2.990283325615443	-0.4323867759871442	0.0002465243093955547	0.5187787607324837	0.09702417917695633	-0.2186079682794281	-0.01468508781759385	0.01016597333342144	-0.5004985707153005	0.1346630960419616	-0.001873937543673126	0.2539911428011044	-0.04517546251989003	-1.033824727153824	-1.783869509575682	1.645597208800213	-9.630473245813684	-713.8391306806882	64.70357007820313	2.064852224928086	1.306033168713719	0.1325846663865131	-3.42684174738775	-0.1033261189710793	-0.2582575068944024	2.587020384638739	-3.756204693682401	-3.756204693682162	1.068045962019954	-0.06313616147013121	-2.724935080668498	-1.061410065685376	5.20040186916562e-07	1.232990991767218e-06	5.404913925532488e-06	6.47212081018226e-06	-1.383519605656587e-06	-3.889153896545664e-07	9.113824789344352e-06
0.55	-0.2404653278662905	-0.0389847780204888	0.6403288236529826	1.495221229613353	-0.2323571956671749	-0.04987636417906136	-0.4016249057568451	1.440970138046461	1.440970138046451	-0.08885134564272709	0.1745191638949063	0.3884074918539288	0.09199424417478429	-0.3303016105100254	-0.09463687719188986	-1.025394654414408	2.890897211982075	-0.05249385621965568	0.2939938219305643	-0.388113486692153	2.9516906764948	2.951690676494691	-0.4228890452462096	0.0001279038099839155	0.4913169289509227	0.08632075664131036	-0.2256804239284153	-0.01406818830769881	0.009384761939705761	-0.5113439661766219	0.134581017888106	-0.002217070593461371	0.2607761374966201	-0.04482628312216783	-1.72660376604052	-2.219129619872876	1.903382719970701	-9.103910269293928	-724.3510672888701	64.92834375280195	2.105936078444354	1.296661289877767	0.2916689593122033	-3.627496484100717	-0.08942125425754303	-0.4496551313917808	2.565904685042515	-3.961105215834671	-3.961105215840572	0.8906693696122556	0.01332866625183431	-2.763884550978585	-1.071453280275138	5.236151400275034e-07	1.219303382958572e-06	5.194838064937947e-06	6.247902113332416e-06	-1.367967459121627e-06	-4.038791113288087e-07	9.178194981134566e-06
0.5600000000000001	-0.2436621754862915	-0.03986649105233793	0.6300922273201662	1.523944915848689	-0.2328858636627342	-0.04695544674116546	-0.4053783402040722	1.470285693006004	1.470285693005998	-0.09303273741697883	0.1745198312202152	0.3931821705153615	0.09280454663282046	-0.3089914181199253	-0.08172009722380051	-1.021653040071724	2.853475893483839	-0.05319894197294033	0.2902006979865601	-0.3626207398979693	2.911085619591332	2.911085619591183	-0.413390004925993	-8.570272285904714e-06	0.4635720042062139	0.0757515367948261	-0.2327528795773915	-0.0134512887978092	0.00860355054598777	-0.5221893616379435	0.1344989397342472	-0.002560203643259093	0.2675611321921467	-0.04448222359337024	-2.432756126280085	-2.657167173131342	2.162117687885588	-8.575300984589209	-735.0828823630443	65.15575126826793	2.157918893098667	1.286575762279607	0.4578340406222198	-3.862490414493114	-0.04681179777051252	-0.2425530377129914	2.530215811463822	-4.158686250233391	-4.158686250233404	1.06830787787634	-0.06670687804177931	-2.781553673298067	-1.034569527853036	5.115353634242592e-07	1.178368517102315e-06	4.905566754793869e-06	5.874983781651828e-06	-1.33083797184213e-06	-4.163754284626971e-07	9.034662573559705e-06
0.5700000000000001	-0.2466439957025673	-0.04061962587263632	0.6199010823852302	1.552283845780607	-0.2334202838743544	-0.044071264886569	-0.4088783607947961	1.499185481005213	1.49918548100532	-0.0971182619084979	0.1745186801965392	0.3976783212810792	0.09350981212538505	-0.2873243488297743	-0.06893128691704846	-1.016310787087085	2.813957270900696	-0.05364638091704849	0.2866617361535496	-0.337453855183579	2.868559126117808	2.868559126117635	-0.4036919944525993	-0.0002377017437235596	0.4356508512729395	0.06533146370505151	-0.239009818469366	-0.01304534629117856	0.007601378791229718	-0.5326727110118087	0.1346949597032644	-0.002935325806689276	0.2735912279294636	-0.0441530582647134	-3.007792362277109	-3.087561130105586	2.421249065335617	-8.106574270928546	-745.0754930757838	65.32167722119232	2.178489380063531	1.271108685592441	0.6121102128405878	-4.049319789258141	-0.03709264738510172	-0.4053892527701933	2.499353260952899	-4.346659956319994	-4.346659956323621	0.924027248965563	-0.001913619815981359	-2.798528942664022	-1.039837231428388	5.079296941554668e-07	1.14918479522755e-06	4.652284286096553e-06	5.592933344566497e-06	-1.299070296876621e-06	-4.297329184185649e-07	8.978759534280721e-06
0.58	-0.2494076675393235	-0.04124565758572327	0.6097712978372317	1.580217035164889	-0.2339578550163461	-0.04122163694964014	-0.4121288268464702	1.527650598257605	1.527650598257822	-0.1011061103719022	0.1745150583905271	0.4018950339495999	0.09411205468067413	-0.265361742216015	-0.0562994757815145	-1.009380962684217	2.772327783956225	-0.05382912804732014	0.283289914453534	-0.3127098320881397	2.824151470227961	2.824151470227763	-0.3938547993034178	-0.0005027267400086231	0.4076843847667903	0.05514694933972723	-0.2452667573613291	-0.01263940378455482	0.006599207036462108	-0.5431560603856743	0.1348909796722779	-0.003310447970131633	0.2796213236667918	-0.04382634864102346	-3.598466011329567	-3.519326593741936	2.679045716665266	-7.63437685927645	-755.3293602276063	65.50096739945032	2.217026357820356	1.255175928035984	0.7753483242681848	-4.284663286758644	0.006126564996789963	-0.209125011113994	2.445643487673584	-4.534918733498123	-4.534918733498278	1.096144813033919	-0.07388558301125316	-2.790616387872992	-0.9874577829629821	5.153600716478208e-07	1.135304888770543e-06	4.445871006260134e-06	5.4292224911401e-06	-1.274285447250261e-06	-4.442119357704988e-07	9.036978463014972e-06
